<svg width="100%" height="100%" viewBox="0 0 512 512" fill="none" xmlns="http://www.w3.org/2000/svg">
    <g filter="url(#glass-glow)">
        <rect x="32" y="32" width="448" height="448" rx="120" fill="url(#glass-gradient)" stroke="white" stroke-width="8" stroke-opacity="0.5"/>
    </g>
    <path d="M256 400C256 400 256 300 256 250" stroke="#00A84D" stroke-width="24" stroke-linecap="round"/>
    <g filter="url(#leaf-shadow)">
        <path d="M256 250C256 250 150 250 150 160C150 100 256 160 256 250Z" fill="url(#leaf-left)" />
        <path d="M240 240C240 240 170 230 170 170" stroke="white" stroke-width="4" stroke-opacity="0.3" stroke-linecap="round"/>
    </g>
    <g filter="url(#leaf-shadow)">
        <path d="M256 250C256 250 362 250 362 160C362 100 256 160 256 250Z" fill="url(#leaf-right)" />
        <path d="M272 240C272 240 342 230 342 170" stroke="white" stroke-width="4" stroke-opacity="0.3" stroke-linecap="round"/>
    </g>
    <defs>
        <linearGradient id="glass-gradient" x1="32" y1="32" x2="480" y2="480" gradientUnits="userSpaceOnUse">
            <stop stop-color="#FFFFFF" stop-opacity="0.9"/>
            <stop offset="1" stop-color="#F2F4F6" stop-opacity="0.6"/>
        </linearGradient>
        <linearGradient id="leaf-left" x1="150" y1="150" x2="256" y2="256" gradientUnits="userSpaceOnUse">
            <stop stop-color="#D1F7C4"/>
            <stop offset="1" stop-color="#00D15B"/>
        </linearGradient>
        <linearGradient id="leaf-right" x1="362" y1="150" x2="256" y2="256" gradientUnits="userSpaceOnUse">
            <stop stop-color="#66E095"/>
            <stop offset="1" stop-color="#00A84D"/>
        </linearGradient>
        <filter id="glass-glow" x="0" y="0" width="512" height="512" filterUnits="userSpaceOnUse" color-interpolation-filters="sRGB">
            <feFlood flood-opacity="0" result="BackgroundImageFix"/>
            <feColorMatrix in="SourceAlpha" type="matrix" values="0 0 0 0 0 0 0 0 0 0 0 0 0 0 0 0 0 0 127 0" result="hardAlpha"/>
            <feOffset dy="10"/>
            <feGaussianBlur stdDeviation="15"/>
            <feColorMatrix type="matrix" values="0 0 0 0 0 0 0 0 0 0.819608 0 0 0 0 0.356863 0 0 0 0.15 0"/>
            <feBlend mode="normal" in2="BackgroundImageFix" result="effect1_dropShadow"/>
            <feBlend mode="normal" in="SourceGraphic" in2="effect1_dropShadow" result="shape"/>
        </filter>
        <filter id="leaf-shadow" x="100" y="100" width="312" height="312" filterUnits="userSpaceOnUse" color-interpolation-filters="sRGB">
            <feDropShadow dx="0" dy="4" stdDeviation="4" flood-opacity="0.2" flood-color="#000"/>
        </filter>
    </defs>
</svg>
